<svg xmlns="http://www.w3.org/2000/svg" viewBox="0 0 149 71"><path d="M72.043 36.844c2.234.523 4.617-2.09 5.363-5.828.668-3.739-.523-7.176-2.758-7.7-2.234-.523-4.617 2.094-5.363 5.832-.746 3.735.52 7.172 2.758 7.696Zm-49.32-.969c.37 0 .746-.227 1.191-.375 3.727-1.27 7.152-3.66 10.281-6.129 2.907-2.39 6.93-6.351 5.664-10.762-1.195-4.109-7.824-5.007-10.804-5.53-2.235-.372-7.524-.524-9.758-.673 0 0 .148-1.344.371-2.316.371-2.094.672-4.188 1.266-6.203.523-1.57.3-2.317-1.043-2.094-.297-.074-2.532.375-3.13.598-4.32 1.718-4.917 5.754-5.808 10.238-2.98.3-7.676.898-9.836 1.719-.672.226-1.265.824-.969 2.168.075.523.672.597 1.266.523.672.074 1.79-.223 2.758-.371.894-.152 3.875-.523 5.738-.598h.223c.074 0-1.492 9.563-3.13 21.223-2.534 17.637.743 31.766 9.684 31.465 11.25 0 26.672-10.09 23.247-21.375-2.536-7.996-13.786-11.508-17.211-11.508Zm-4.246-19.957c4.918.074 10.578.375 14.675 3.363 3.875 4.188-5.886 9.867-7.3 10.614-1.34.671-7.375 3.062-10.059 3.437.375-2.39 2.012-13.602 2.684-17.414Zm12.367 36.324c-.746 2.168-3.13 7.172-9.985 9.79a8.368 8.368 0 0 1-1.71.448c-4.399-.3-4.547-7.921-4.547-12.406 0-6.652.449-8.894.671-11.734 6.407 1.344 18.922 3.664 15.57 13.902Zm0 0" style="stroke:none;fill-rule:nonzero;fill:#000;fill-opacity:1"/><path d="M148.852 55.531c-1.192-2.093-8.418-4.039-18.774-12.93 4.024-3.96 9.61-9.492 13.856-13.527 1.34-1.273 3.875-2.691 3.5-5.008-.149-.898-2.383-2.468-4.172-.898-.371.3-2.383 2.242-3.575 3.512-2.457 2.543-6.93 7.25-9.164 9.64.82-6.949 3.801-23.015 3.801-23.39.149-1.793.668-3.887-.894-5.457-2.086-2.09-5.067-1.344-5.887-.598-1.34 1.121-1.414 4.035-1.414 4.336 0 0-2.832 19.133-3.277 25.785-1.493-1.348-3.504-3.96-4.547-4.187-1.266-.149-1.34.3-2.16 1.27-1.864 2.394 2.535 6.28 6.332 10.316-1.563 2.316-3.13 5.156-4.618 7.546-2.16 3.438-6.257 9.793-8.64 10.614-5.887-1.57 2.976-24.364-5.442-23.617-.668.074-2.457.222-4.023 1.343-2.902 2.094-5.215 5.383-7.3 8.672.374-1.719.745-3.363 1.269-5.008 1.043-2.988 2.011-6.129 1.859-9.343-.148-2.465-4.172-1.868-5.14-1.567-2.754.895-3.278 3.512-3.797 6.203-.672 3.66-1.266 7.325-1.938 10.91-.148.899-.371 1.793-.523 2.692-1.266 1.793-2.235 4.11-3.5 5.828-1.641 2.316-4.098 5.531-6.184 6.277-1.34-.597-1.79-3.363-1.938-5.23-.074-3.063.075-6.055.598-9.043.52-3.067 2.531-6.055 2.086-9.27-.3-1.793-4.992-.597-6.035-.222-2.98 1.195-3.95 7.101-4.246 11.511-.895 1.641-2.012 3.66-2.906 5.004-1.938 2.84-4.246 5.832-7.301 7.325-4.024-.82-4.098-9.415-4.098-13.079 0-4.933 4.992-10.687 7.746-17.488 2.832-7.023 5.067-14.574 5.961-22.195.45-3.512.524-12.856-4.543-11.957-4.62.746-7.523 4.633-8.941 6.875-3.649 5.828-5.586 13.3-6.778 20.18-1.27 7.472-1.64 15.167-1.27 22.792.302 6.352.97 14.125 5.216 18.832 1.492 1.274 3.281 1.872 4.844 1.72 6.257-.895 8.94-4.708 12.292-9.49.747 4.259 2.235 9.415 8.344 8.145 2.758-.597 6.48-3.136 8.867-5.902-.226 2.688-.968 7.922 2.309 7.024 3.5-1.344 4.469-3.586 5.14-5.23 1.637-3.888 3.426-7.626 5.512-11.212a55.573 55.573 0 0 1 3.13-4.933c.523-.747 1.34-1.942 2.234-2.84.672 1.793-.075 6.351-.149 7.699-.148 3.437-.148 6.95 1.117 10.164.895 2.242 2.684 2.914 4.399 2.988 5.808.375 10.8-6.203 13.484-10.015.89-1.27 1.785-2.54 2.606-3.887 0 3.516.074 7.027.523 10.465.223 1.941.742 3.812 3.871 3.437.301 0 1.938-.297 2.086-2.914.149-1.867.149-4.035.3-6.054.15-2.094.446-5.829.669-7.997 4.473 3.813 13.633 8.895 16.242 9.118 2.012.226 3.652-2.54 2.98-3.735Zm-96.106-32.96c1.266-5.606 3.652-14.798 6.184-17.415 2.086 2.39-1.489 14.875-2.012 16.742-1.64 5.532-3.875 10.91-6.406 16.067.148-5.23 1.043-10.313 2.234-15.395Zm0 0" style="stroke:none;fill-rule:nonzero;fill:#000;fill-opacity:1"/></svg>