<svg xmlns="http://www.w3.org/2000/svg" viewBox="0 0 150 53"><path d="M44.234 51.75V1.285H30.832v13.77c0 4.11.074 10.816.434 13.05-1.082-2.093-5.547-8.796-7.852-11.894L12.32 1.285H0V51.75h13.402V36.324c0-4.113-.074-10.816-.433-13.05 1.297 2.234 5.617 8.722 7.851 11.824L32.852 51.75ZM149.96 36.25c0-9.441-5.62-13.336-18.3-16.363-6.484-1.516-8.281-2.38-8.281-4.258 0-1.8 1.008-3.098 5.187-3.098 5.114 0 9.579 1.73 14.047 4.758l6.774-10.957c-5.336-3.75-11.532-5.84-20.102-5.84-12.18 0-19.887 6.418-19.887 15.93 0 10.094 5.84 13.414 18.012 16.223 6.77 1.59 8.574 2.742 8.574 4.613 0 2.379-1.586 3.246-6.558 3.246-4.68 0-11.094-2.524-14.766-5.043l-6.773 10.953c5.261 3.461 13.113 6.129 21.25 6.129 12.105 0 20.824-4.758 20.824-16.293Zm0 0" style="stroke:none;fill-rule:nonzero;fill:#858e8e;fill-opacity:1"/><path d="M64.727 26.41c0-7.156 5.793-12.957 12.945-12.957 7.148 0 12.95 5.8 12.95 12.957 0 7.156-5.802 12.957-12.95 12.957-7.152 0-12.945-5.8-12.945-12.957Zm-13.45 0C51.277 11.824 63.094 0 77.672 0c14.574 0 26.39 11.824 26.39 26.41s-11.816 26.41-26.39 26.41c-14.578 0-26.395-11.824-26.395-26.41Zm0 0" style="stroke:none;fill-rule:evenodd;fill:#ee3224;fill-opacity:1"/></svg>