<svg xmlns="http://www.w3.org/2000/svg" viewBox="0 0 150 61"><path d="M65.79 29.383c-2.903-2.852-6.88-4.625-11.24-4.625H23.677l11.418-11.516h29.05c1.227.02 2.376.563 3.184 1.375L84.191 31.63c2.899 2.84 6.871 4.625 11.258 4.625h30.903L114.914 47.77h-29.02a4.668 4.668 0 0 1-3.19-1.415Zm8.827 25.137c2.871 2.917 6.86 4.753 11.278 4.753h33.726l28.633-28.77L119.62 1.728h-16.164l22.895 23.03H95.449a4.53 4.53 0 0 1-3.152-1.273L75.414 6.5c-2.89-2.95-6.871-4.762-11.27-4.773H30.368L1.747 30.504l28.62 28.77h16.176l-22.867-23.02H54.55c1.226 0 2.336.492 3.152 1.293L74.617 54.52" style="stroke:none;fill-rule:evenodd;fill:#006;fill-opacity:1"/></svg>