<svg xmlns="http://www.w3.org/2000/svg" viewBox="0 0 150 65"><path d="m61.4 50.599 21.697-28.4L21.8 15.002c-8.603-.998-15.998 5.202-16.5 13.801L3.898 52.604C3.401 61.204 9.703 70.399 17.9 73l46.2 14.702C72.298 90.4 81.703 86.003 85.003 78l.6-1.498-19.2-7.601c-7.906-3.204-10.2-11.498-5.003-18.302" style="fill-rule:nonzero;fill:#008fd3;fill-opacity:1;stroke-width:14;stroke-linecap:butt;stroke-linejoin:miter;stroke:#fff;stroke-opacity:1;stroke-miterlimit:4" transform="matrix(.52083 0 0 .5242 5.208 5.242)"/><path d="m117.103 33.303 6.9-10.403-14.603-9.3c-7.297-4.702-17.498-2.899-22.703 4.002l-3.6 4.695 8.1 1.006c8.603.998 12.9 8.398 9.6 16.297L85.603 76.599 131.398 94.9c6.3 2.496 13.2.499 17.1-4.501l-29.4-32.401c-5.895-6.401-6.698-17.497-1.995-24.696" style="fill-rule:nonzero;fill:#96bd0d;fill-opacity:1;stroke-width:14;stroke-linecap:butt;stroke-linejoin:miter;stroke:#fff;stroke-opacity:1;stroke-miterlimit:4" transform="matrix(.52083 0 0 .5242 5.208 5.242)"/><path d="m91.198 23.198-8.1-.998L61.4 50.599c-5.197 6.9-3 15.098 5.1 18.302l19.2 7.6 15.203-36.998c3.194-7.906-1.103-15.306-9.706-16.305" style="fill-rule:nonzero;fill:#008b36;fill-opacity:1;stroke-width:14;stroke-linecap:butt;stroke-linejoin:miter;stroke:#fff;stroke-opacity:1;stroke-miterlimit:4" transform="matrix(.52083 0 0 .5242 5.208 5.242)"/><path d="M173.502 26.097 151.498 9.703c-6.9-5.202-16.5-3.503-21.195 3.696l-6.3 9.501 26.296 16.797c7.304 4.702 11.002 15.202 8.302 23.302l-7.597 22.699c-.6 1.699-1.403 3.3-2.505 4.605l3.202 3.495c5.798 6.401 16.2 7.303 23.002 2.004L202.498 74.4l-27.6-35.001c-3.495-4.397-3.796-9.397-1.395-13.302" style="fill-rule:nonzero;fill:#e2004f;fill-opacity:1;stroke-width:14;stroke-linecap:butt;stroke-linejoin:miter;stroke:#fff;stroke-opacity:1;stroke-miterlimit:4" transform="matrix(.52083 0 0 .5242 5.208 5.242)"/><path d="M158.502 63.103c2.7-8.204-1.005-18.704-8.302-23.302l-26.197-16.9-6.9 10.402C112.4 40.502 113.203 51.598 119 58l29.4 32.304a17.107 17.107 0 0 0 2.498-4.605Zm0 0" style="fill-rule:nonzero;fill:#a31d23;fill-opacity:1;stroke-width:14;stroke-linecap:butt;stroke-linejoin:miter;stroke:#fff;stroke-opacity:1;stroke-miterlimit:4" transform="matrix(.52083 0 0 .5242 5.208 5.242)"/><path d="m262.002 56.002-22.2-43.005c-4.004-7.698-13.702-11.2-21.704-7.9l-38.4 16c-2.798 1.2-4.8 2.906-6.098 5l33.998 25.404c6.9 5.201 7.004 13.696.104 19.002l-5.204 3.994 15.704 19.904c5.296 6.797 15 7.601 21.398 1.9l17.797-15.797c6.503-5.902 8.505-16.804 4.606-24.502" style="fill-rule:nonzero;fill:#f19300;fill-opacity:1;stroke-width:14;stroke-linecap:butt;stroke-linejoin:miter;stroke:#fff;stroke-opacity:1;stroke-miterlimit:4" transform="matrix(.52083 0 0 .5242 5.208 5.242)"/><path d="M207.5 51.396 173.502 26c-2.4 3.898-2.1 8.898 1.395 13.399l27.6 35.001 5.205-4.001c6.796-5.299 6.698-13.801-.202-19.003" style="fill-rule:nonzero;fill:#cc071e;fill-opacity:1;stroke-width:14;stroke-linecap:butt;stroke-linejoin:miter;stroke:#fff;stroke-opacity:1;stroke-miterlimit:4" transform="matrix(.52083 0 0 .5242 5.208 5.242)"/><path d="m37.188 31.766 11.3-14.887-31.925-3.774c-4.481-.523-8.333 2.727-8.594 7.235l-.73 12.476c-.259 4.508 3.023 9.329 7.292 10.692l24.063 7.707c4.27 1.414 9.168-.89 10.886-5.086l.313-.785-10-3.985c-4.117-1.68-5.313-6.027-2.605-9.593" style="stroke:none;fill-rule:nonzero;fill:#008fd3;fill-opacity:1"/><path d="m66.2 22.7 3.593-5.454-7.606-4.875c-3.8-2.465-9.113-1.52-11.824 2.098l-1.875 2.46 4.219.528c4.48.523 6.719 4.402 5 8.543l-7.914 19.395 23.852 9.593c3.28 1.309 6.875.262 8.906-2.36L67.238 35.646c-3.07-3.356-3.488-9.172-1.039-12.946" style="stroke:none;fill-rule:nonzero;fill:#96bd0d;fill-opacity:1"/><path d="m52.707 17.402-4.219-.523-11.3 14.887c-2.708 3.617-1.563 7.914 2.656 9.593l10 3.985 7.918-19.395c1.664-4.144-.575-8.023-5.055-8.547" style="stroke:none;fill-rule:nonzero;fill:#008b36;fill-opacity:1"/><path d="m95.574 18.922-11.46-8.594c-3.594-2.726-8.594-1.836-11.04 1.938l-3.281 4.98 13.695 8.805c3.805 2.465 5.73 7.969 4.325 12.215l-3.958 11.898c-.312.89-.73 1.73-1.304 2.414l1.668 1.832c3.02 3.356 8.437 3.828 11.98 1.05l14.477-11.218L96.3 25.895c-1.82-2.305-1.977-4.926-.727-6.973" style="stroke:none;fill-rule:nonzero;fill:#e2004f;fill-opacity:1"/><path d="M87.762 38.32c1.406-4.3-.524-9.804-4.325-12.215l-13.644-8.859-3.594 5.453c-2.449 3.774-2.031 9.59.989 12.946L82.5 52.578a8.985 8.985 0 0 0 1.3-2.414Zm0 0" style="stroke:none;fill-rule:nonzero;fill:#a31d23;fill-opacity:1"/><path d="m141.668 34.598-11.563-22.543c-2.085-4.035-7.136-5.871-11.304-4.14l-20 8.386c-1.457.629-2.5 1.523-3.176 2.62l17.707 13.317c3.594 2.727 3.648 7.18.055 9.961l-2.711 2.094 8.18 10.434c2.757 3.562 7.812 3.984 11.144.996l9.27-8.282c3.386-3.093 4.43-8.808 2.398-12.843" style="stroke:none;fill-rule:nonzero;fill:#f19300;fill-opacity:1"/><path d="M113.281 32.184 95.574 18.87c-1.25 2.043-1.094 4.664.727 7.024l14.375 18.347 2.71-2.097c3.54-2.778 3.489-7.235-.105-9.961" style="stroke:none;fill-rule:nonzero;fill:#cc071e;fill-opacity:1"/><path d="M40.781 33.285c0-1.992-1.144-3.512-3.176-3.512-1.875 0-3.18 1.364-3.18 3.774 0 2.988 1.669 3.777 3.388 3.777 1.3 0 2.03-.422 2.761-1.156L39.48 35.07c-.468.47-.835.68-1.667.68-1.043 0-1.614-.68-1.614-1.625h4.582Zm-4.531-.418c0-.316.05-.523.156-.785.207-.422.625-.789 1.2-.789.57 0 1.039.316 1.195.789.105.262.156.469.156.785Zm24.012.418c0-1.992-1.149-3.512-3.18-3.512-1.875 0-3.176 1.364-3.176 3.774 0 2.988 1.668 3.777 3.387 3.777 1.3 0 2.031-.422 2.758-1.156l-1.094-1.098c-.469.47-.832.68-1.664.68-1.043 0-1.617-.68-1.617-1.625h4.586Zm-4.586-.418c0-.316.054-.523.156-.785.211-.422.625-.789 1.2-.789.624 0 1.042.316 1.198.789.102.262.157.469.157.785Zm21.094-.785c-.207-.422-.625-.789-1.196-.789-.625 0-1.043.316-1.199.789a1.892 1.892 0 0 0-.156.785h2.761a3.492 3.492 0 0 0-.21-.785m-2.602 2.043c0 .945.57 1.625 1.613 1.625.781 0 1.2-.21 1.668-.68l1.094 1.098c-.73.734-1.461 1.156-2.762 1.156-1.719 0-3.386-.789-3.386-3.777 0-2.41 1.304-3.774 3.18-3.774 2.03 0 3.175 1.52 3.175 3.512v.84Zm22.187-2.043c-.21-.422-.625-.789-1.199-.789-.625 0-1.043.316-1.199.789a1.956 1.956 0 0 0-.156.785h2.761a3.493 3.493 0 0 0-.207-.785m-2.605 2.043c0 .945.574 1.625 1.613 1.625.782 0 1.2-.21 1.668-.68l1.094 1.098c-.73.734-1.457 1.156-2.762 1.156-1.718 0-3.383-.789-3.383-3.777 0-2.41 1.301-3.774 3.176-3.774 2.031 0 3.176 1.52 3.176 3.512v.84Zm25.105-2.36c-.21-.21-.468-.312-.835-.312-.364 0-.625.102-.832.313-.364.367-.418.996-.418 1.78 0 .79.054 1.419.418 1.786.207.207.468.313.832.313.367 0 .625-.106.835-.313.364-.367.415-1.05.415-1.785.054-.73 0-1.414-.415-1.781m1.457 4.664c-.468.472-1.199.894-2.292.894-1.094 0-1.82-.422-2.239-.894-.676-.68-.832-1.52-.832-2.883 0-1.309.156-2.149.832-2.828.469-.473 1.2-.89 2.239-.89 1.093 0 1.824.417 2.293.89.675.68.832 1.52.832 2.828 0 1.363-.207 2.203-.832 2.883M19.636 28.934v8.285h-1.93v-8.285h-2.602v-1.727h7.188v1.727Zm9.894 8.285V32.5c0-1.574-.832-2.672-2.449-2.672-.625 0-1.25.262-1.77.785v-3.355h-1.824v9.96h1.825v-4.507c0-.945.625-1.313 1.199-1.313.57 0 1.195.317 1.195 1.313v4.508h1.824Zm1.668 0h1.82v-7.34H31.2Zm0-8.598h1.875v-1.52H31.2Zm21.352 8.598V32.5c0-.785-.207-1.52-.781-2.098-.415-.418-1.04-.629-1.77-.629-.938 0-1.563.262-2.188.946-.468-.63-1.144-.946-1.925-.946-.68 0-1.356.262-1.825.786v-.68h-1.769v7.34h1.82v-4.457c0-.996.625-1.364 1.2-1.364.574 0 1.199.317 1.199 1.364v4.457h1.82V32.71c0-.945.68-1.313 1.2-1.313.573 0 1.198.317 1.198 1.364v4.457Zm18.281 0V27.207h-1.926l-2.605 5.45-2.602-5.45h-1.93v10.012h1.93v-5.82l1.926 3.828h1.3l1.93-3.829v5.82h1.977Zm15.313 0v-7.34h-1.82v4.457c0 .996-.626 1.363-1.2 1.363s-1.2-.316-1.2-1.363v-4.457h-1.82v4.719c0 .785.157 1.52.727 2.097.418.418.992.63 1.719.63.68 0 1.355-.266 1.824-.79v.684Zm4.898 0v-1.574h-.68c-.468 0-.625-.211-.625-.68v-7.758h-1.82v7.914c0 1.047.625 2.098 2.133 2.098Zm14.738 0V32.5c0-.785-.156-1.52-.73-2.098-.414-.418-.989-.629-1.719-.629-.676 0-1.352.262-1.82.786v-.68h-1.774v7.34h1.825v-4.457c0-.996.624-1.364 1.199-1.364.57 0 1.195.317 1.195 1.364v4.457h1.824Zm7.762 0V32.5c0-1.574-.836-2.672-2.45-2.672-.624 0-1.25.262-1.769.785v-3.355H107.5v9.96h1.824v-4.507c0-.945.625-1.313 1.196-1.313.574 0 1.199.317 1.199 1.313v4.508h1.824Zm12.5-5.715V30.09h-1.356v-.79c0-.417.208-.679.626-.679h.73v-1.574H125c-1.512 0-2.137 1.05-2.137 2.098v.945h-.781v1.414h.781v5.766h1.825v-5.766Zm4.894 0V30.09h-1.355v-.79c0-.417.211-.679.625-.679h.73v-1.574h-1.042c-1.508 0-2.133 1.05-2.133 2.098v.945h-.782v1.414h.782v5.766h1.82v-5.766Zm0 0" style="stroke:none;fill-rule:nonzero;fill:#fff;fill-opacity:1"/></svg>